# Exported from Wings 3D 0.98.28a
mtllib ship.mtl
o tetrahedron1
#40 vertices, 41 faces
v 1.63299400 -1.32397776 -0.32761617
v -1.63299400 -1.32397776 -0.32761617
v 1.8041493e-16 1.09208009 0.13958274
v -0.22560863 1.11368472 -8.6301788e-2
v 0.22560863 1.11368472 -8.6301788e-2
v 9.2730730e-17 0.37606062 0.46462947
v -0.33065162 -0.22071568 0.41886235
v 0.33065162 -0.22071568 0.41886235
v -0.67315718 0.33850805 -0.16303976
v 0.67315718 0.33850805 -0.16303976
v 1.28396624 -1.02830352 -0.12755993
v -1.28396624 -1.02830352 -0.12755993
v -0.11280431 1.10288241 2.6640475e-2
v 0.11280431 1.10288241 2.6640475e-2
v 0.33657859 0.35728434 0.15079485
v -0.33657859 0.35728434 0.15079485
v -9.7982284e-2 1.06722153 5.7025019e-2
v -0.30053513 0.39233158 0.16940533
v -2.6513591e-2 0.40761807 0.42491013
v -2.6513591e-2 1.06037758 0.12858111
v 0.30053513 0.39233158 0.16940533
v 9.7982284e-2 1.06722153 5.7025019e-2
v 2.6513591e-2 1.06037758 0.12858111
v 2.6513591e-2 0.40761807 0.42491013
v -8.7192891e-2 1.06210748 4.5759673e-2
v -0.28974574 0.38721752 0.15813998
v -1.5724198e-2 0.40250401 0.41364478
v -1.5724198e-2 1.05526352 0.11731577
v 0.28974574 0.38721752 0.15813998
v 8.7192891e-2 1.06210748 4.5759673e-2
v 1.5724198e-2 1.05526352 0.11731577
v 1.5724198e-2 0.40250401 0.41364478
v -0.65835568 -0.92229769 -5.5835288e-2
v 0.65835568 -0.92229769 -5.5835288e-2
v 0.28468332 -0.31118317 0.35765111
v -0.28468332 -0.31118317 0.35765111
v -0.14348040 -1.07610027 0.17078194
v -0.33181126 -1.19035630 -3.7615209e-2
v 0.33181126 -1.19035630 -3.7615209e-2
v 0.14348040 -1.07610027 0.17078194
vn 0.65726378 0.31153598 0.68625772
vn -0.65726378 0.31153598 0.68625772
vn 0.65726378 0.31153598 0.68625772
vn 1.8010546e-17 9.8512648e-2 -0.99513580
vn -2.6653672e-17 -0.56038877 0.82822969
vn 1.8010546e-17 9.8512648e-2 -0.99513580
vn -2.6653672e-17 -0.56038877 0.82822969
vn -0.65726378 0.31153598 0.68625772
vn 0.0000000e+0 0.99545720 9.5210073e-2
vn -0.65726378 0.31153598 0.68625772
vn -0.65726378 0.31153598 0.68625772
vn 0.65726378 0.31153598 0.68625772
vn 0.65726378 0.31153598 0.68625772
vn 3.7166925e-17 9.8512648e-2 -0.99513580
vn -0.65726378 0.31153598 0.68625772
vn 3.6144264e-16 0.99545720 9.5210073e-2
vn 3.7166925e-17 9.8512648e-2 -0.99513580
vn 3.6144264e-16 0.99545720 9.5210073e-2
vn 0.65726378 0.31153598 0.68625772
vn 0.0000000e+0 -7.6466042e-2 0.99707219
vn -0.65726378 0.31153598 0.68625772
vn 0.65726378 0.31153598 0.68625772
vn -0.65726378 0.31153598 0.68625772
vn -0.65726378 0.31153598 0.68625772
vn 0.65726378 0.31153598 0.68625772
vn 0.65726378 0.31153598 0.68625772
vn 0.0000000e+0 -7.6466042e-2 0.99707219
vn -0.65726378 0.31153598 0.68625772
vn 4.7026210e-17 -0.56038877 0.82822969
vn 4.7026210e-17 -0.56038877 0.82822969
vn 0.0000000e+0 -7.6466042e-2 0.99707219
vn 0.65726378 0.31153598 0.68625772
vn -1.1327174e-16 -0.56038877 0.82822969
vn -1.1327174e-16 -0.56038877 0.82822969
vn 2.7588736e-17 9.8512648e-2 -0.99513580
vn 2.7588736e-17 9.8512648e-2 -0.99513580
vn -0.65726378 0.31153598 0.68625772
vn -0.65726378 0.31153598 0.68625772
vn 0.65726378 0.31153598 0.68625772
vn 2.7588736e-17 9.8512648e-2 -0.99513580
vn 2.7588736e-17 9.8512648e-2 -0.99513580
vn 0.65726378 0.31153598 0.68625772
vn 0.65726378 0.31153598 0.68625772
vn 0.65726378 0.31153598 0.68625772
vn -5.9290577e-17 -0.56038877 0.82822969
vn -5.9290577e-17 -0.56038877 0.82822969
vn -5.9290577e-17 -0.56038877 0.82822969
vn -0.65726378 0.31153598 0.68625772
vn 4.7574724e-17 -0.56038877 0.82822969
vn -0.65726378 0.31153598 0.68625772
vn 4.7574724e-17 -0.56038877 0.82822969
vn 4.7574724e-17 -0.56038877 0.82822969
vn 1.8072132e-16 0.99545720 9.5210073e-2
vn -0.65726378 0.31153598 0.68625772
vn 1.8072132e-16 0.99545720 9.5210073e-2
vn -0.65726378 0.31153598 0.68625772
vn -0.65726378 0.31153598 0.68625772
vn 1.8072132e-16 0.99545720 9.5210073e-2
vn 1.8072132e-16 0.99545720 9.5210073e-2
vn 0.65726378 0.31153598 0.68625772
vn 0.65726378 0.31153598 0.68625772
vn 0.65726378 0.31153598 0.68625772
vn -0.65726378 0.31153598 0.68625772
vn -0.65726378 0.31153598 0.68625772
vn 0.69815544 -9.1291759e-2 0.71010196
vn -0.26625541 -0.94783262 0.17527516
vn -0.65726378 0.31153598 0.68625772
vn -0.65726378 0.31153598 0.68625772
vn 0.69815544 -9.1291759e-2 0.71010196
vn 0.18430288 0.94935946 -0.25445838
vn -0.65726378 0.31153598 0.68625772
vn -0.65726378 0.31153598 0.68625772
vn 0.18430288 0.94935946 -0.25445838
vn -0.75366061 -0.27168902 -0.59848204
vn -0.65726378 0.31153598 0.68625772
vn -0.65726378 0.31153598 0.68625772
vn -0.75366061 -0.27168902 -0.59848204
vn -0.26625541 -0.94783262 0.17527516
vn 0.65726378 0.31153598 0.68625772
vn 0.65726378 0.31153598 0.68625772
vn -0.69815544 -9.1291759e-2 0.71010196
vn -0.18430288 0.94935946 -0.25445838
vn 0.65726378 0.31153598 0.68625772
vn 0.65726378 0.31153598 0.68625772
vn -0.69815544 -9.1291759e-2 0.71010196
vn 0.26625541 -0.94783262 0.17527516
vn 0.65726378 0.31153598 0.68625772
vn 0.65726378 0.31153598 0.68625772
vn 0.26625541 -0.94783262 0.17527516
vn 0.75366061 -0.27168902 -0.59848204
vn 0.65726378 0.31153598 0.68625772
vn 0.65726378 0.31153598 0.68625772
vn 0.75366061 -0.27168902 -0.59848204
vn -0.18430288 0.94935946 -0.25445838
vn -0.65726378 0.31153598 0.68625772
vn 0.69815544 -9.1291759e-2 0.71010196
vn -0.26625541 -0.94783262 0.17527516
vn -0.65726378 0.31153598 0.68625772
vn 0.69815544 -9.1291759e-2 0.71010196
vn 0.18430288 0.94935946 -0.25445838
vn -0.65726378 0.31153598 0.68625772
vn 0.18430288 0.94935946 -0.25445838
vn -0.75366061 -0.27168902 -0.59848204
vn -0.65726378 0.31153598 0.68625772
vn -0.75366061 -0.27168902 -0.59848204
vn -0.26625541 -0.94783262 0.17527516
vn 0.65726378 0.31153598 0.68625772
vn -0.69815544 -9.1291759e-2 0.71010196
vn -0.18430288 0.94935946 -0.25445838
vn 0.65726378 0.31153598 0.68625772
vn -0.69815544 -9.1291759e-2 0.71010196
vn 0.26625541 -0.94783262 0.17527516
vn 0.65726378 0.31153598 0.68625772
vn 0.26625541 -0.94783262 0.17527516
vn 0.75366061 -0.27168902 -0.59848204
vn 0.65726378 0.31153598 0.68625772
vn 0.75366061 -0.27168902 -0.59848204
vn -0.18430288 0.94935946 -0.25445838
vn 8.4688922e-17 -0.56038877 0.82822969
vn 8.4688922e-17 -0.56038877 0.82822969
vn -6.5206540e-18 -6.7814033e-2 -0.99769798
vn -0.35043177 -0.36835999 0.86110887
vn -7.5609030e-17 -0.56038877 0.82822969
vn -7.5609030e-17 -0.56038877 0.82822969
vn -6.5206540e-18 -6.7814033e-2 -0.99769798
vn 0.35043177 -0.36835999 0.86110887
vn -1.1327174e-16 -0.56038877 0.82822969
vn -1.1327174e-16 -0.56038877 0.82822969
vn 0.35043177 -0.36835999 0.86110887
vn -3.0872330e-17 -0.23732059 0.97143138
vn 0.62433380 -0.29223116 0.72443651
vn 4.7026210e-17 -0.56038877 0.82822969
vn 4.7026210e-17 -0.56038877 0.82822969
vn -0.62433380 -0.29223116 0.72443651
vn -3.0872330e-17 -0.23732059 0.97143138
vn -0.35043177 -0.36835999 0.86110887
vn 1.2285648e-16 -0.87685902 0.48074761
vn -0.62433380 -0.29223116 0.72443651
vn -3.0872330e-17 -0.23732059 0.97143138
vn 1.2285648e-16 -0.87685902 0.48074761
vn -0.62433380 -0.29223116 0.72443651
vn -6.5206540e-18 -6.7814033e-2 -0.99769798
vn -0.35043177 -0.36835999 0.86110887
vn 1.2285648e-16 -0.87685902 0.48074761
vn -6.5206540e-18 -6.7814033e-2 -0.99769798
vn 0.35043177 -0.36835999 0.86110887
vn 0.62433380 -0.29223116 0.72443651
vn 1.2285648e-16 -0.87685902 0.48074761
vn -3.0872330e-17 -0.23732059 0.97143138
vn 0.62433380 -0.29223116 0.72443651
g tetrahedron1_Black
usemtl Black
f 26//98 27//101 28//104 25//95
f 30//110 31//113 32//116 29//107
f 38//140 39//144 40//148 37//137
g tetrahedron1_White
usemtl White
f 1//5 11//45 12//49 2//7
f 2//6 9//35 10//40 1//4
f 2//8 12//50 16//2 9//38
f 3//9 14//58 13//53
f 3//10 20//75 19//72 6//24
f 3//12 23//87 22//84 14//62
f 4//16 13//55 14//59 5//18
f 5//19 14//60 15//1 10//42
f 6//20 7//27 8//31
f 6//23 19//71 18//68 16//2
f 6//25 24//91 23//88 3//13
f 7//28 6//21 16//2 12//48
f 7//29 36//132 35//128 8//34
f 8//33 35//127 34//124 11//47
f 9//37 16//2 13//54 4//15
f 10//41 9//36 4//14 5//17
f 10//39 15//1 11//43 1//3
f 11//44 15//1 6//22 8//32
f 11//46 34//123 33//119 12//51
f 12//52 33//120 36//133 7//30
f 13//57 17//64 20//76 3//11
f 14//61 22//83 21//79 15//1
f 15//1 21//80 24//92 6//26
f 16//2 18//67 17//63 13//56
f 17//66 25//97 28//106 20//78
f 18//69 26//99 25//96 17//65
f 19//73 27//102 26//100 18//70
f 20//77 28//105 27//103 19//74
f 21//82 29//109 32//118 24//94
f 22//85 30//111 29//108 21//81
f 23//89 31//114 30//112 22//86
f 24//93 32//117 31//115 23//90
f 33//122 38//143 36//136
f 34//125 39//145 38//142 33//121
f 35//129 39//146 34//126
f 36//135 37//139 40//149 35//130
f 37//138 36//134 38//141
f 39//147 35//131 40//150
