# Exported from Wings 3D 0.98.28a
mtllib rock.mtl
o icosahedron1
#42 vertices, 80 faces
v -1.04945781 0.0000000e+0 1.69806039
v 1.20808808 3.5056155e-18 1.95472974
v -1.09828628 0.0000000e+0 -1.77706657
v 1.00477172 -1.0449670e-18 -1.62575671
v 0.0000000e+0 1.79340597 1.10838458
v -1.4652856e-18 1.80722917 -1.11692778
v 0.0000000e+0 -1.79182675 1.10740857
v -1.0681505e-19 -1.70902193 -1.05623241
v 1.85990099 1.14948073 0.0000000e+0
v -1.86900475 1.15510716 0.0000000e+0
v 1.59926090 -0.98839641 7.0573772e-19
v -1.69411610 -1.04702011 9.9372742e-20
v -1.8564000e-18 -2.1250202e-18 1.78399968
v -0.65617327 1.06171185 1.71788510
v -0.62549145 -1.01206759 1.63755904
v -1.59722948 0.61008693 0.98714254
v -1.51698605 -0.57943667 0.93754936
v 0.62077799 1.00444106 1.62521905
v 0.72670337 -1.17583202 1.90253535
v 1.65305753 0.63141134 1.02164619
v 1.76866472 -0.67556935 1.09309540
v -1.8564000e-18 3.2817824e-19 -1.96663976
v -0.70829184 1.14604152 -1.85433331
v -0.64673797 -1.04644520 -1.69318316
v -1.73379556 0.66225052 -1.07154506
v -1.50573960 -0.57514091 -0.93059867
v 0.66549343 1.07679220 -1.74228561
v 0.58743914 -0.95049763 -1.53793678
v 1.69099930 0.64590381 -1.04509551
v 1.77677177 -0.67866597 -1.09810583
v 1.0964431e-18 1.69985558 -1.8564000e-18
v 1.08185687 1.75048042 0.66862357
v -0.87153670 1.41017537 0.53863863
v 1.12314448 1.81728515 -0.69414070
v -0.99963991 1.61745063 -0.61781072
v -4.0217396e-18 -1.77990141 -1.8564000e-18
v 1.09827466 -1.77704495 0.67877032
v -1.06567048 -1.72429030 0.65861984
v 1.08356454 -1.75324348 -0.66967896
v -1.17562162 -1.90219491 -0.72657334
v 1.87175378 0.0000000e+0 -1.8564000e-18
v -2.21343994 0.0000000e+0 -1.8564000e-18
vt 7.5715538e-2 0.41185197
vt 0.15320756 0.27617872
vt 0.15867507 0.64347134
vt 0.19372385 0.51617475
vt 0.21673143 0.47332747
vt 0.22248040 0.72677403
vt 0.22314493 0.21510423
vt 0.26136890 0.58459663
vt 0.26496807 0.41785195
vt 0.28258346 0.82850640
vt 0.31356997 0.76445381
vt 0.32783886 0.25805643
vt 0.35493187 0.13127750
vt 0.38109320 0.69586089
vt 0.39310191 0.52879915
vt 0.42538938 0.78922591
vt 0.42560868 0.35420196
vt 0.44299258 0.55334888
vt 0.44824597 0.30489214
vt 0.46097614 0.16924799
vt 0.50000000 0.24663272
vt 0.50000000 0.80421319
vt 0.52741486 0.47434454
vt 0.53339560 0.78304899
vt 0.53584181 0.63512028
vt 0.59918575 0.11550936
vt 0.62050398 0.32906329
vt 0.62795245 0.82521925
vt 0.63693896 0.76838390
vt 0.66030233 0.51509405
vt 0.67003874 0.24307928
vt 0.69306289 0.69867001
vt 0.69697428 0.17554791
vt 0.70697188 0.44424023
vt 0.72805787 0.82049703
vt 0.76935436 0.27989817
vt 0.77701012 0.38356252
vt 0.80143556 0.56262532
vt 0.81519248 0.38826175
vt 0.84584869 0.72321218
vt 0.85785111 0.48110153
vt 0.85997681 0.62581861
vn -0.50859132 -5.4939614e-2 0.85925346
vn 0.43429892 0.13874954 0.89001855
vn -0.54617431 -0.12108559 -0.82887388
vn 0.45203284 -6.2610556e-2 -0.88980123
vn -0.12016095 0.91739581 0.37940251
vn -4.9371554e-2 0.93828240 -0.34232819
vn -8.4193952e-2 -0.91455024 0.39561249
vn 9.3998118e-2 -0.85872990 -0.50373337
vn 0.91748796 0.39648799 3.1829413e-2
vn -0.74844607 0.65391129 0.11058254
vn 0.90029971 -0.43526357 -2.4602930e-3
vn -0.89224331 -0.45011565 3.6024611e-2
vn -9.3653191e-2 4.2964688e-2 0.99467739
vn -0.33929995 0.47669498 0.81094848
vn -0.39066933 -0.39832891 0.82988647
vn -0.76776775 0.32118514 0.55441211
vn -0.79408234 -0.29393477 0.53201090
vn 0.25940527 0.47242370 0.84233292
vn 0.19215597 -0.47778179 0.85720513
vn 0.83626798 0.31148113 0.45125976
vn 0.90940017 -0.26904781 0.31718229
vn 9.0929683e-2 -9.7358234e-2 -0.99108686
vn -0.31270964 0.48548807 -0.81640309
vn -0.25800872 -0.45473864 -0.85243432
vn -0.81980519 0.24940497 -0.51547707
vn -0.81399147 -0.29425498 -0.50083120
vn 0.35155013 0.39371906 -0.84935140
vn 0.27639379 -0.44529165 -0.85165828
vn 0.82643656 0.22130689 -0.51771215
vn 0.82247996 -0.29020254 -0.48919239
vn -0.13699185 0.98953542 4.5308759e-2
vn 0.41592782 0.84528076 0.33541689
vn -0.43360584 0.86367018 0.25702102
vn 0.41816317 0.86663545 -0.27218110
vn -0.41167665 0.90256696 -0.12607626
vn 1.9521510e-2 -0.99977826 -7.8952096e-3
vn 0.48663099 -0.85539081 0.17747347
vn -0.50572212 -0.78512467 0.35752536
vn 0.44974944 -0.83760725 -0.31006376
vn -0.49037309 -0.81604351 -0.30595297
vn 0.99819937 -5.8792045e-2 1.1896192e-2
vn -0.99311462 -0.11134003 3.6424673e-2
g icosahedron1_icosahedron1_auv
usemtl icosahedron1_auv
f 1/8/1 15/9/15 13/4/13
f 1/8/1 17/15/17 15/9/15
f 2/1/2 13/4/13 19/2/19
f 2/1/2 20/5/20 18/3/18
f 2/1/2 21/7/21 20/5/20
f 3/38/3 23/40/23 22/41/22
f 3/38/3 25/32/25 23/40/23
f 3/38/3 26/30/26 25/32/25
f 4/39/4 22/41/22 27/42/27
f 4/39/4 30/33/30 28/36/28
f 5/10/5 18/3/18 32/11/32
f 5/10/5 32/11/32 31/22/31
f 6/35/6 23/40/23 35/28/35
f 6/35/6 27/42/27 23/40/23
f 6/35/6 31/22/31 34/29/34
f 7/12/7 15/9/15 38/17/38
f 7/12/7 19/2/19 15/9/15
f 7/12/7 38/17/38 36/21/36
f 8/31/8 28/36/28 39/26/39
f 8/31/8 36/21/36 40/27/40
f 9/18/9 20/5/20 41/19/41
f 9/18/9 32/11/32 20/5/20
f 9/18/9 34/29/34 32/11/32
f 10/24/10 25/32/25 42/25/42
f 10/24/10 35/28/35 25/32/25
f 11/20/11 39/26/39 30/33/30
f 11/20/11 41/19/41 21/7/21
f 12/23/12 38/17/38 17/15/17
f 12/23/12 40/27/40 38/17/38
f 12/23/12 42/25/42 26/30/26
f 13/4/13 14/6/14 1/8/1
f 13/4/13 15/9/15 19/2/19
f 13/4/13 18/3/18 14/6/14
f 14/6/14 16/14/16 1/8/1
f 14/6/14 18/3/18 5/10/5
f 14/6/14 33/16/33 16/14/16
f 15/9/15 17/15/17 38/17/38
f 16/14/16 17/15/17 1/8/1
f 16/14/16 33/16/33 10/24/10
f 16/14/16 42/25/42 17/15/17
f 17/15/17 42/25/42 12/23/12
f 18/3/18 13/4/13 2/1/2
f 18/3/18 20/5/20 32/11/32
f 19/2/19 21/7/21 2/1/2
f 19/2/19 37/13/37 21/7/21
f 20/5/20 21/7/21 41/19/41
f 21/7/21 37/13/37 11/20/11
f 22/41/22 23/40/23 27/42/27
f 22/41/22 24/37/24 3/38/3
f 22/41/22 28/36/28 24/37/24
f 23/40/23 25/32/25 35/28/35
f 24/37/24 26/30/26 3/38/3
f 24/37/24 28/36/28 8/31/8
f 24/37/24 40/27/40 26/30/26
f 25/32/25 26/30/26 42/25/42
f 26/30/26 40/27/40 12/23/12
f 27/42/27 29/34/29 4/39/4
f 27/42/27 34/29/34 29/34/29
f 28/36/28 22/41/22 4/39/4
f 28/36/28 30/33/30 39/26/39
f 29/34/29 30/33/30 4/39/4
f 29/34/29 34/29/34 9/18/9
f 29/34/29 41/19/41 30/33/30
f 30/33/30 41/19/41 11/20/11
f 31/22/31 32/11/32 34/29/34
f 31/22/31 33/16/33 5/10/5
f 31/22/31 35/28/35 33/16/33
f 33/16/33 14/6/14 5/10/5
f 33/16/33 35/28/35 10/24/10
f 34/29/34 27/42/27 6/35/6
f 35/28/35 31/22/31 6/35/6
f 36/21/36 37/13/37 7/12/7
f 36/21/36 38/17/38 40/27/40
f 36/21/36 39/26/39 37/13/37
f 37/13/37 19/2/19 7/12/7
f 37/13/37 39/26/39 11/20/11
f 39/26/39 36/21/36 8/31/8
f 40/27/40 24/37/24 8/31/8
f 41/19/41 29/34/29 9/18/9
f 42/25/42 16/14/16 10/24/10
